# xmcd CD database file
#
# Track frame offsets:
#	150
#	23709
#	52924
#	76487
#	102947
#	129642
#	157290
#	178823
#	203683
#	231889
#	254014
#
# Disc length: 3641 seconds
#
# Revision: 0
# Processed by: cddbd v1.5.2PL0 Copyright (c) Steve Scherf et al.
# Submitted via: CDex 1.51
#
DISCID=950e370b
DTITLE=Mars Lasar - Afterworld
DYEAR=2012
DGENRE=New Age
TTITLE0=Sky Dancers
TTITLE1=Divine Shadows
TTITLE2=Nine Worlds
TTITLE3=Heavenly Footsteps
TTITLE4=Gateway
TTITLE5=Radiant Spirit
TTITLE6=Sacred Jounrey
TTITLE7=Dreamwalkers
TTITLE8=Open Seven Eyes
TTITLE9=Enlightened Touch
TTITLE10=Reach For The Sun
EXTD=YEAR: 2012
EXTT0=
EXTT1=
EXTT2=
EXTT3=
EXTT4=
EXTT5=
EXTT6=
EXTT7=
EXTT8=
EXTT9=
EXTT10=
PLAYORDER=
